<?xml version="1.0" encoding="utf-8"?>
<!-- Generator: Adobe Illustrator 26.0.3, SVG Export Plug-In . SVG Version: 6.00 Build 0)  -->
<!DOCTYPE svg PUBLIC "-//W3C//DTD SVG 1.1//EN" "http://www.w3.org/Graphics/SVG/1.1/DTD/svg11.dtd" [
	<!ENTITY ns_extend "http://ns.adobe.com/Extensibility/1.0/">
	<!ENTITY ns_ai "http://ns.adobe.com/AdobeIllustrator/10.0/">
	<!ENTITY ns_graphs "http://ns.adobe.com/Graphs/1.0/">
	<!ENTITY ns_vars "http://ns.adobe.com/Variables/1.0/">
	<!ENTITY ns_imrep "http://ns.adobe.com/ImageReplacement/1.0/">
	<!ENTITY ns_sfw "http://ns.adobe.com/SaveForWeb/1.0/">
	<!ENTITY ns_custom "http://ns.adobe.com/GenericCustomNamespace/1.0/">
	<!ENTITY ns_adobe_xpath "http://ns.adobe.com/XPath/1.0/">
]>
<svg version="1.1" xmlns:x="&ns_extend;" xmlns:i="&ns_ai;" xmlns:graph="&ns_graphs;"
	 xmlns="http://www.w3.org/2000/svg" xmlns:xlink="http://www.w3.org/1999/xlink" x="0px" y="0px" width="477.3px" height="242.5px"
	 viewBox="0 0 477.3 242.5" style="enable-background:new 0 0 477.3 242.5;" xml:space="preserve">
<style type="text/css">
	.st0{fill:#FFFFFF;}
	.st1{fill:none;stroke:#C6C6C6;stroke-linejoin:bevel;stroke-miterlimit:10;stroke-dasharray:1,3;}
	.st2{fill:none;stroke:#F4F4F4;stroke-linejoin:round;stroke-miterlimit:10;}
	.st3{fill:none;stroke:#000000;stroke-linecap:square;stroke-linejoin:round;stroke-miterlimit:10;}
	.st4{font-family:'Helvetica';}
	.st5{font-size:10px;}
	.st6{font-size:11px;}
	.st7{fill:none;stroke:#0A72B9;stroke-linejoin:round;stroke-miterlimit:10;stroke-dasharray:8,4;}
	.st8{fill:none;stroke:#D85419;stroke-width:3;stroke-linejoin:round;stroke-miterlimit:10;}
	.st9{fill:none;stroke:#ECB11F;stroke-linejoin:round;stroke-miterlimit:10;}
	.st10{fill:none;stroke:#7C328A;stroke-linejoin:round;stroke-miterlimit:10;}
	.st11{fill:none;stroke:#77AC31;stroke-width:2;stroke-linejoin:round;stroke-miterlimit:10;}
	
		.st12{fill:none;stroke:#4FBEEE;stroke-width:2;stroke-linecap:round;stroke-linejoin:round;stroke-miterlimit:10;stroke-dasharray:0.1,3;}
	.st13{font-size:9px;}
</style>
<metadata>
	<sfw  xmlns="&ns_sfw;">
		<slices></slices>
		<sliceSourceBounds  bottomLeftOrigin="true" height="242.5" width="477.3" x="-40.1" y="291.7"></sliceSourceBounds>
	</sfw>
</metadata>
<g id="Ebene_3">
	<rect class="st0" width="477.3" height="242.5"/>
</g>
<g id="Ebene_2">
	<path class="st1" d="M81.6,208.7V4.7 M96.5,208.7V4.7 M107,208.7V4.7 M115.3,208.7V4.7 M122,208.7V4.7 M127.6,208.7V4.7
		 M132.5,208.7V4.7 M136.9,208.7V4.7 M166.2,208.7V4.7 M181.1,208.7V4.7 M191.7,208.7V4.7 M199.9,208.7V4.7 M206.6,208.7V4.7
		 M212.3,208.7V4.7 M217.2,208.7V4.7 M221.5,208.7V4.7 M250.9,208.7V4.7 M265.8,208.7V4.7 M276.4,208.7V4.7 M284.6,208.7V4.7
		 M291.3,208.7V4.7 M297,208.7V4.7 M301.9,208.7V4.7 M306.2,208.7V4.7"/>
	<path class="st1" d="M310.1,195h-254 M310.1,187h-254 M310.1,181.3h-254 M310.1,176.9h-254 M310.1,173.3h-254 M310.1,170.2h-254
		 M310.1,167.6h-254 M310.1,165.2h-254 M310.1,149.4h-254 M310.1,141.4h-254 M310.1,135.7h-254 M310.1,131.3h-254 M310.1,127.7h-254
		 M310.1,124.6h-254 M310.1,122h-254 M310.1,119.7h-254 M310.1,103.9h-254 M310.1,95.8h-254 M310.1,90.1h-254 M310.1,85.7h-254
		 M310.1,82.1h-254 M310.1,79.1h-254 M310.1,76.4h-254 M310.1,74.1h-254 M310.1,58.3h-254 M310.1,50.3h-254 M310.1,44.6h-254
		 M310.1,40.2h-254 M310.1,36.6h-254 M310.1,33.5h-254 M310.1,30.9h-254 M310.1,28.5h-254 M310.1,12.7h-254 M310.1,4.7h-254"/>
	<path class="st2" d="M56.1,208.7V4.7 M140.7,208.7V4.7 M225.4,208.7V4.7 M310.1,208.7V4.7"/>
</g>
<g id="Ebene_1">
	<path class="st2" d="M310.1,208.7h-254 M310.1,163.1h-254 M310.1,117.6h-254 M310.1,72h-254 M310.1,26.5h-254"/>
	<path class="st3" d="M56.1,208.7h254 M56.1,4.7h254 M56.1,208.7v-2.5 M140.7,208.7v-2.5 M225.4,208.7v-2.5 M310.1,208.7v-2.5
		 M56.1,4.7v2.5 M140.7,4.7v2.5 M225.4,4.7v2.5 M310.1,4.7v2.5 M56.1,208.7v-1.3 M81.6,208.7v-1.3 M96.5,208.7v-1.3 M107,208.7v-1.3
		 M115.3,208.7v-1.3 M122,208.7v-1.3 M127.6,208.7v-1.3 M132.5,208.7v-1.3 M136.9,208.7v-1.3 M140.7,208.7v-1.3 M166.2,208.7v-1.3
		 M181.1,208.7v-1.3 M191.7,208.7v-1.3 M199.9,208.7v-1.3 M206.6,208.7v-1.3 M212.3,208.7v-1.3 M217.2,208.7v-1.3 M221.5,208.7v-1.3
		 M225.4,208.7v-1.3 M250.9,208.7v-1.3 M265.8,208.7v-1.3 M276.4,208.7v-1.3 M284.6,208.7v-1.3 M291.3,208.7v-1.3 M297,208.7v-1.3
		 M301.9,208.7v-1.3 M306.2,208.7v-1.3 M310.1,208.7v-1.3 M56.1,4.7V6 M81.6,4.7V6 M96.5,4.7V6 M107,4.7V6 M115.3,4.7V6 M122,4.7V6
		 M127.6,4.7V6 M132.5,4.7V6 M136.9,4.7V6 M140.7,4.7V6 M166.2,4.7V6 M181.1,4.7V6 M191.7,4.7V6 M199.9,4.7V6 M206.6,4.7V6
		 M212.3,4.7V6 M217.2,4.7V6 M221.5,4.7V6 M225.4,4.7V6 M250.9,4.7V6 M265.8,4.7V6 M276.4,4.7V6 M284.6,4.7V6 M291.3,4.7V6 M297,4.7
		V6 M301.9,4.7V6 M306.2,4.7V6 M310.1,4.7V6"/>
	<text transform="matrix(1 0 0 1 43.0783 222.7102)" class="st4 st5">   100</text>
	<text transform="matrix(1 0 0 1 126.7424 222.7102)" class="st4 st5">  1000</text>
	<text transform="matrix(1 0 0 1 209.9065 222.7102)" class="st4 st5"> 10000</text>
	<text transform="matrix(1 0 0 1 293.0783 222.7102)" class="st4 st5">100000</text>
	<text transform="matrix(1 0 0 1 165.5783 237.218)" class="st4 st6">Length</text>
	<path class="st3" d="M56.1,208.7V4.7 M310.1,208.7V4.7 M56.1,208.7h2.5 M56.1,163.1h2.5 M56.1,117.6h2.5 M56.1,72h2.5 M56.1,26.5
		h2.5 M310.1,208.7h-2.5 M310.1,163.1h-2.5 M310.1,117.6h-2.5 M310.1,72h-2.5 M310.1,26.5h-2.5 M56.1,208.7h1.3 M56.1,195h1.3
		 M56.1,187h1.3 M56.1,181.3h1.3 M56.1,176.9h1.3 M56.1,173.3h1.3 M56.1,170.2h1.3 M56.1,167.6h1.3 M56.1,165.2h1.3 M56.1,163.1h1.3
		 M56.1,149.4h1.3 M56.1,141.4h1.3 M56.1,135.7h1.3 M56.1,131.3h1.3 M56.1,127.7h1.3 M56.1,124.6h1.3 M56.1,122h1.3 M56.1,119.7h1.3
		 M56.1,117.6h1.3 M56.1,103.9h1.3 M56.1,95.8h1.3 M56.1,90.1h1.3 M56.1,85.7h1.3 M56.1,82.1h1.3 M56.1,79.1h1.3 M56.1,76.4h1.3
		 M56.1,74.1h1.3 M56.1,72h1.3 M56.1,58.3h1.3 M56.1,50.3h1.3 M56.1,44.6h1.3 M56.1,40.2h1.3 M56.1,36.6h1.3 M56.1,33.5h1.3
		 M56.1,30.9h1.3 M56.1,28.5h1.3 M56.1,26.5h1.3 M56.1,12.7h1.3 M56.1,4.7h1.3 M310.1,208.7h-1.3 M310.1,195h-1.3 M310.1,187h-1.3
		 M310.1,181.3h-1.3 M310.1,176.9h-1.3 M310.1,173.3h-1.3 M310.1,170.2h-1.3 M310.1,167.6h-1.3 M310.1,165.2h-1.3 M310.1,163.1h-1.3
		 M310.1,149.4h-1.3 M310.1,141.4h-1.3 M310.1,135.7h-1.3 M310.1,131.3h-1.3 M310.1,127.7h-1.3 M310.1,124.6h-1.3 M310.1,122h-1.3
		 M310.1,119.7h-1.3 M310.1,117.6h-1.3 M310.1,103.9h-1.3 M310.1,95.8h-1.3 M310.1,90.1h-1.3 M310.1,85.7h-1.3 M310.1,82.1h-1.3
		 M310.1,79.1h-1.3 M310.1,76.4h-1.3 M310.1,74.1h-1.3 M310.1,72h-1.3 M310.1,58.3h-1.3 M310.1,50.3h-1.3 M310.1,44.6h-1.3
		 M310.1,40.2h-1.3 M310.1,36.6h-1.3 M310.1,33.5h-1.3 M310.1,30.9h-1.3 M310.1,28.5h-1.3 M310.1,26.5h-1.3 M310.1,12.7h-1.3
		 M310.1,4.7h-1.3"/>
	<text transform="matrix(1 0 0 1 21.0705 212.2023)" class="st4 st5">0.0001</text>
	<text transform="matrix(1 0 0 1 24.0783 166.6477)" class="st4 st5"> 0.001</text>
	<text transform="matrix(1 0 0 1 26.0705 121.0773)" class="st4 st5">  0.0</text>
	<text transform="matrix(1 0 0 1 45.5393 121.0773)" class="st4 st5">1</text>
	<text transform="matrix(1 0 0 1 29.0783 75.5148)" class="st4 st5">   0.1</text>
	<text transform="matrix(1 0 0 1 32.0783 29.9523)" class="st4 st5">     1</text>
	<text transform="matrix(0 -1 1 0 15.0705 132.218)" class="st4 st6">Time (sec)</text>
	<polyline class="st7" points="81.6,156.4 87.8,153.1 94.2,146.3 100.5,139.2 106.9,130.6 113.2,125 119.6,115.9 125.9,104.7 
		132.3,103.6 138.6,96.6 145,90.7 151.3,83.6 157.7,77.2 164,71.4 170.4,63.5 176.7,57.4 183.1,50.9 189.4,43.8 195.8,36.6 
		202.1,28.5 208.5,21.1 214.8,14.6 221.2,7.8 223.1,4.7 	"/>
	<polyline class="st8" points="81.6,186.8 87.8,194.9 94.2,181.1 100.5,179.9 106.9,172.3 113.2,168.4 119.6,162.2 125.9,155.9 
		132.3,147.4 138.6,140.9 145,132.6 151.3,119.3 157.7,122.9 164,117 170.4,109.7 176.7,98.3 183.1,93 189.4,86.3 195.8,78.1 
		202.1,71.6 208.5,62.1 214.8,56.3 221.2,47 227.5,40.2 233.9,31.4 240.2,24 246.6,16.5 252.9,6.5 253.7,4.7 	"/>
	<polyline class="st9" points="81.6,194.6 87.8,189.6 94.2,182.1 100.5,173.8 106.9,165.9 113.2,156 119.6,151.9 125.9,140.8 
		132.3,129.7 138.6,121 145,112.1 151.3,106.7 157.7,96.5 164,87.5 170.4,77.4 176.7,66.5 183.1,56.8 189.4,46.8 195.8,36.2 
		202.1,26.2 208.5,14.4 214,4.7 	"/>
	<polyline class="st10" points="81.6,152.4 87.8,145.9 94.2,138.3 100.5,132.9 106.9,124.6 113.2,118.9 119.6,112.2 125.9,105.4 
		132.3,97.3 138.6,89 145,82.1 151.3,76.1 157.7,68.9 164,61.5 170.4,54.2 176.7,47.9 183.1,42.1 189.4,34.4 195.8,26.4 202.1,18.3 
		208.5,11 214.8,5.1 215.2,4.7 	"/>
	<polyline class="st11" points="81.6,184.5 87.8,185.4 94.2,183.5 100.5,184.4 106.9,182.5 113.2,183.1 119.6,182.8 125.9,181.9 
		132.3,177.9 138.6,176.8 145,179.5 151.3,176.7 157.7,175.1 164,168.9 170.4,166.6 176.7,164.2 183.1,167.1 189.4,163.9 
		195.8,156.6 202.1,153.2 208.5,150.1 214.8,149.6 221.2,143.7 227.5,137.7 233.9,133.7 240.2,129.8 246.6,126.1 252.9,124.8 
		259.3,120 265.6,111 272,105.1 278.3,99.9 284.7,95.2 291,88.9 297.4,83.5 303.7,77 310.1,71.3 	"/>
	<polyline class="st12" points="108.9,208.7 113.2,204.2 119.6,195.3 125.9,189.8 132.3,179.7 138.6,170.3 145,166.7 151.3,158.4 
		157.7,151.6 164,143.5 170.4,137.4 176.7,130.4 183.1,122.9 189.4,115.4 195.8,108.2 202.1,100.6 208.5,88.6 214.8,81.2 
		221.2,73.9 227.5,66.8 233.9,58.3 240.2,51 246.6,43.2 252.9,35 259.3,26.7 265.6,11.9 268.4,4.7 	"/>
	<text transform="matrix(1 0 0 1 366.5783 17.2023)" class="st4 st13">R: crqa</text>
	<line class="st7" x1="333.6" y1="13.7" x2="363.6" y2="13.7"/>
	<text transform="matrix(1 0 0 1 366.5783 28.7102)" class="st4 st13">Julia: DynamicalSystems.jl</text>
	<line class="st8" x1="333.6" y1="25.2" x2="363.6" y2="25.2"/>
	<text transform="matrix(1 0 0 1 367.0783 41.2102)" class="st4 st13">MATLAB: rp.m (Zenodo)</text>
	<line class="st9" x1="333.6" y1="36.7" x2="363.6" y2="36.7"/>
	<text transform="matrix(1 0 0 1 367.0783 52.2023)" class="st4 st13">Python: pdist2</text>
	<line class="st10" x1="333.6" y1="48.2" x2="363.6" y2="48.2"/>
	<text transform="matrix(1 0 0 1 367.0783 64.2023)" class="st4 st13">Python:PyRQA (GPU)</text>
	<line class="st11" x1="333.6" y1="59.7" x2="363.6" y2="59.7"/>
	<text transform="matrix(1 0 0 1 367.0783 75.2102)" class="st4 st13">Python: pyunicorn</text>
	<line class="st12" x1="333.6" y1="71.2" x2="363.6" y2="71.2"/>
</g>
</svg>
